<?xml version="1.0" encoding="utf-8"?>
<!-- Generator: Adobe Illustrator 24.1.0, SVG Export Plug-In . SVG Version: 6.00 Build 0)  -->
<svg version="1.2" baseProfile="tiny" id="g-hectare-003-Artboard_1-img" xmlns="http://www.w3.org/2000/svg" xmlns:xlink="http://www.w3.org/1999/xlink"
	 x="0px" y="0px" viewBox="0 0 618 381" xml:space="preserve">
<g>
	
		<line fill="none" stroke="#000000" stroke-width="0.5" stroke-miterlimit="10" x1="580.317" y1="233.228" x2="351.56" y2="365.301"/>
	<g>
		<path d="M100.004,207.724c0.044,0.073,0.09,0.14,0.125,0.212c0.051,0.103,0.096,0.21,0.14,0.316
			c0.013,0.031,0.016,0.067,0.017,0.1c0.001,0.018-0.004,0.043-0.016,0.055c-0.038,0.039-0.061,0.096-0.116,0.113
			c-0.075,0.023-0.151,0.065-0.229,0.008c-0.008-0.006-0.019-0.013-0.023-0.022c-0.021-0.048-0.053-0.085-0.098-0.113
			c-0.052-0.033-0.056-0.086-0.048-0.141c0.001-0.009,0-0.019,0.004-0.027c0.023-0.057-0.007-0.089-0.052-0.114
			c-0.01-0.006-0.019-0.014-0.029-0.021c-0.07-0.052-0.09-0.118-0.054-0.199c0.019-0.043,0.023-0.086,0.023-0.133
			c-0.001-0.093,0.005-0.186,0.014-0.278c0.007-0.08-0.028-0.15-0.042-0.224c-0.017-0.093-0.035-0.187-0.045-0.281
			c-0.007-0.067-0.001-0.135-0.002-0.202c0-0.017-0.006-0.034-0.013-0.049c-0.078-0.182-0.11-0.372-0.097-0.57
			c0.003-0.047,0.011-0.095,0.025-0.14c0.012-0.04,0.007-0.074-0.011-0.109c-0.042-0.08-0.054-0.168-0.062-0.256
			c-0.017-0.183-0.034-0.366-0.043-0.55c-0.009-0.17-0.055-0.33-0.108-0.489c-0.015-0.046-0.021-0.095-0.034-0.151
			c-0.009,0.014-0.021,0.025-0.021,0.036c0.004,0.12-0.018,0.237-0.04,0.355c-0.007,0.039,0.003,0.082,0.004,0.123
			c0.005,0.169,0.012,0.338,0.011,0.507c0,0.059-0.023,0.118-0.035,0.177c-0.007,0.035-0.006,0.066,0.008,0.102
			c0.085,0.21,0.12,0.426,0.063,0.65c-0.012,0.046-0.01,0.095-0.012,0.142c-0.005,0.121-0.03,0.238-0.059,0.355
			c-0.009,0.034-0.007,0.072-0.006,0.108c0.001,0.049,0.004,0.098,0.008,0.147c0.017,0.204,0.04,0.406,0.084,0.607
			c0.024,0.108-0.03,0.197-0.168,0.232c-0.051,0.013-0.103,0.023-0.154,0.037c-0.015,0.004-0.032,0.014-0.039,0.027
			c-0.029,0.052-0.057,0.104-0.08,0.159c-0.033,0.081-0.113,0.126-0.2,0.113c-0.018-0.003-0.042,0.004-0.057,0.016
			c-0.081,0.062-0.155,0.069-0.238-0.002c-0.06-0.051-0.063-0.107-0.061-0.176c0.002-0.082,0.033-0.147,0.089-0.201
			c0.02-0.02,0.053-0.028,0.08-0.041c0.031-0.014,0.069-0.019,0.091-0.041c0.081-0.077,0.159-0.158,0.233-0.241
			c0.048-0.054,0.047-0.125,0.034-0.189c-0.039-0.192-0.088-0.382-0.129-0.574c-0.026-0.121-0.053-0.242-0.068-0.365
			c-0.017-0.133-0.025-0.267-0.027-0.4c-0.001-0.067,0.018-0.135,0.028-0.203c0.001-0.01,0.001-0.02-0.001-0.03
			c-0.03-0.105-0.06-0.21-0.09-0.315c-0.006-0.02-0.01-0.042-0.009-0.062c0.003-0.066-0.029-0.121-0.05-0.181
			c-0.029-0.083-0.048-0.172-0.051-0.259c-0.006-0.163-0.016-0.325-0.039-0.486c-0.016-0.111-0.026-0.223-0.034-0.336
			c-0.006-0.084-0.003-0.169-0.009-0.253c-0.006-0.08,0.022-0.152,0.047-0.224c0.025-0.073,0.029-0.144,0.014-0.221
			c-0.015-0.072,0-0.142,0.047-0.203c0.008-0.011,0.011-0.033,0.006-0.045c-0.03-0.075-0.017-0.144,0.016-0.214
			c0.059-0.123,0.079-0.254,0.042-0.386c-0.043-0.15-0.074-0.302-0.097-0.456c-0.006-0.038-0.006-0.076-0.009-0.124
			c-0.017,0.024-0.029,0.041-0.041,0.059c-0.05,0.072-0.125,0.111-0.201,0.143c-0.108,0.046-0.217,0.09-0.327,0.13
			c-0.114,0.041-0.23,0.029-0.342-0.006c-0.064-0.02-0.088-0.082-0.087-0.143c0.002-0.08-0.036-0.152-0.038-0.23
			c-0.003-0.111-0.005-0.222-0.005-0.333c0-0.048,0.003-0.096,0.008-0.143c0.018-0.153,0.037-0.307,0.056-0.46
			c0.004-0.035,0.012-0.07,0.015-0.105c0.001-0.014-0.004-0.029-0.008-0.042c-0.031-0.099-0.067-0.197-0.092-0.298
			c-0.01-0.041,0.004-0.087,0.002-0.131c-0.001-0.033-0.014-0.066-0.015-0.1c-0.003-0.07-0.006-0.14-0.003-0.21
			c0.001-0.023,0.016-0.048,0.031-0.067c0.028-0.036,0.056-0.032,0.077,0.009c0.007,0.015,0.011,0.031,0.015,0.042
			c0.018-0.044,0.038-0.091,0.058-0.139c0.002-0.004,0.004-0.007,0.006-0.01c0.051-0.053,0.067-0.057,0.102,0.001
			c0.017-0.032,0.032-0.066,0.052-0.097c0.02-0.03,0.048-0.028,0.063,0.004c0.01,0.022,0.011,0.048,0.016,0.073
			c0,0,0.003,0.001,0.005,0c0.017-0.014,0.034-0.027,0.051-0.041c0.014,0.02,0.034,0.038,0.041,0.06
			c0.012,0.037,0.021,0.077,0.023,0.116c0.005,0.096,0.004,0.192,0.008,0.288c0.001,0.027,0.006,0.054,0.011,0.09
			c0.022-0.024,0.034-0.046,0.053-0.056c0.043-0.024,0.089-0.045,0.135-0.064c0.035-0.015,0.072-0.013,0.096,0.02
			c0.018,0.024,0.003,0.079-0.027,0.104c-0.055,0.046-0.095,0.101-0.123,0.167c-0.016,0.037-0.041,0.072-0.068,0.102
			c-0.07,0.077-0.102,0.171-0.112,0.27c-0.012,0.114-0.019,0.23-0.015,0.345c0.003,0.084,0.028,0.167,0.044,0.249
			c0.079-0.051,0.152-0.098,0.232-0.149c0.008-0.084,0.066-0.151,0.135-0.209c0.075-0.062,0.158-0.11,0.257-0.127
			c0.005-0.001,0.011-0.004,0.016-0.003c0.099,0.024,0.164-0.041,0.236-0.088c0.042-0.028,0.085-0.055,0.13-0.077
			c0.054-0.027,0.091-0.064,0.097-0.126c0.008-0.083,0.024-0.167-0.022-0.245c-0.011-0.019-0.026-0.036-0.037-0.055
			c-0.015-0.025-0.028-0.05-0.041-0.076c-0.012-0.026-0.022-0.053-0.032-0.079c-0.003-0.009-0.011-0.017-0.01-0.026
			c0.001-0.031-0.003-0.06-0.03-0.081c-0.001-0.001-0.001-0.002-0.002-0.003c-0.02-0.062-0.048-0.122-0.057-0.185
			c-0.006-0.036,0.019-0.077,0.029-0.116c0.004-0.016,0.01-0.034,0.007-0.05c-0.01-0.058,0.008-0.111,0.057-0.135
			c0.045-0.022,0.079-0.051,0.097-0.099c0.029-0.076,0.096-0.081,0.162-0.089c0.022-0.003,0.048-0.014,0.062-0.03
			c0.08-0.091,0.274-0.102,0.366-0.005c0.004,0.004,0.007,0.008,0.009,0.013c0.015,0.04,0.037,0.06,0.086,0.061
			c0.053,0.001,0.085,0.047,0.099,0.093c0.019,0.062,0.057,0.11,0.089,0.163c0.051,0.083,0.077,0.174,0.029,0.264
			c-0.026,0.048-0.031,0.094-0.038,0.145c-0.006,0.044-0.026,0.087-0.067,0.113c-0.005,0.003-0.014,0.007-0.015,0.012
			c-0.018,0.093-0.078,0.173-0.077,0.272c0,0.08,0.035,0.136,0.095,0.181c0.074,0.056,0.156,0.102,0.222,0.165
			c0.057,0.055,0.117,0.079,0.193,0.091c0.139,0.022,0.23,0.115,0.295,0.233c0.052,0.094,0.092,0.194,0.09,0.305
			c-0.001,0.04,0.006,0.081-0.003,0.118c-0.011,0.045,0.006,0.081,0.018,0.121c0.023,0.079,0.047,0.16,0.054,0.241
			c0.008,0.094-0.005,0.189-0.001,0.283c0.003,0.075,0.019,0.149,0.03,0.223c0.016,0.114,0.034,0.227,0.046,0.341
			c0.014,0.136-0.012,0.266-0.053,0.397c-0.036,0.116-0.046,0.24-0.07,0.36c-0.019,0.093-0.042,0.185-0.062,0.277
			c-0.003,0.014-0.001,0.029-0.002,0.044c-0.008,0.112,0,0.228-0.027,0.335c-0.031,0.124-0.087,0.242-0.197,0.324
			c-0.016,0.012-0.022,0.045-0.022,0.068c0,0.133-0.026,0.26-0.073,0.383c-0.002,0.005-0.002,0.011-0.005,0.015
			c-0.056,0.069-0.035,0.147-0.031,0.225c0.004,0.074,0.005,0.15-0.009,0.222c-0.012,0.063,0.003,0.115,0.023,0.17
			c0.046,0.126,0.077,0.255,0.086,0.389c0.004,0.055,0.012,0.111,0.014,0.166c0.001,0.052-0.002,0.104-0.007,0.155
			c-0.009,0.09-0.014,0.18-0.031,0.268c-0.032,0.156-0.075,0.31-0.106,0.466c-0.013,0.064-0.007,0.131-0.008,0.197
			C100.03,207.624,100.046,207.684,100.004,207.724z M100.105,203.97c0.005,0.002,0.01,0.003,0.015,0.005
			c0.008-0.016,0.021-0.032,0.023-0.048c0.007-0.084,0.019-0.169,0.015-0.253c-0.006-0.148-0.019-0.296-0.036-0.443
			c-0.011-0.102,0.005-0.201,0.015-0.301c0.001-0.013-0.001-0.032-0.009-0.041c-0.042-0.049-0.067-0.104-0.078-0.167
			c-0.006-0.034-0.014-0.068-0.021-0.101c-0.004,0-0.009,0-0.013,0c-0.014,0.05-0.03,0.1-0.041,0.151
			c-0.007,0.037-0.013,0.076-0.008,0.112c0.008,0.062,0.028,0.122,0.039,0.184c0.019,0.104,0.029,0.207-0.011,0.31
			c-0.003,0.009,0.001,0.023,0.006,0.032c0.042,0.068,0.058,0.144,0.068,0.221C100.084,203.743,100.094,203.856,100.105,203.97z"/>
	</g>
	
		<line fill="none" stroke="#000000" stroke-width="0.5" stroke-miterlimit="10" x1="345.541" y1="362.086" x2="356.679" y2="368.516"/>
	
		<line fill="none" stroke="#000000" stroke-width="0.5" stroke-miterlimit="10" x1="574.748" y1="230.013" x2="585.886" y2="236.443"/>
	
		<line fill="none" stroke="#40A148" stroke-width="0.5" stroke-miterlimit="10" x1="171.439" y1="294.055" x2="294.786" y2="365.269"/>
	
		<line fill="none" stroke="#40A148" stroke-width="0.5" stroke-miterlimit="10" x1="300.805" y1="362.054" x2="289.667" y2="368.485"/>
	
		<line fill="none" stroke="#40A148" stroke-width="0.5" stroke-miterlimit="10" x1="177.315" y1="290.84" x2="166.177" y2="297.27"/>
	<polygon fill="none" stroke="#CCCCCC" stroke-width="0.5" stroke-miterlimit="10" points="102.535,95.706 32.114,55.048 
		97.216,17.461 167.637,58.119 	"/>
	<g>
		<path d="M99.11,56.614c0.098,0.164,0.2,0.312,0.279,0.472c0.114,0.23,0.215,0.468,0.313,0.705
			c0.028,0.069,0.035,0.149,0.039,0.224c0.002,0.041-0.01,0.096-0.037,0.123c-0.085,0.086-0.135,0.214-0.26,0.253
			c-0.167,0.052-0.337,0.145-0.512,0.017c-0.019-0.014-0.042-0.029-0.051-0.048c-0.047-0.107-0.119-0.189-0.219-0.253
			c-0.116-0.074-0.126-0.192-0.108-0.316c0.003-0.02,0.001-0.043,0.008-0.061c0.051-0.126-0.015-0.198-0.115-0.255
			c-0.023-0.013-0.043-0.031-0.064-0.046c-0.155-0.117-0.202-0.263-0.12-0.444c0.043-0.095,0.052-0.192,0.05-0.297
			c-0.002-0.207,0.012-0.414,0.031-0.621c0.016-0.178-0.063-0.334-0.093-0.501c-0.038-0.208-0.078-0.417-0.1-0.627
			c-0.016-0.149-0.001-0.3-0.004-0.451c-0.001-0.037-0.014-0.076-0.029-0.11c-0.174-0.407-0.246-0.831-0.216-1.271
			c0.007-0.105,0.024-0.212,0.055-0.312c0.027-0.089,0.015-0.165-0.025-0.242c-0.093-0.179-0.121-0.376-0.139-0.572
			c-0.038-0.408-0.075-0.817-0.097-1.227c-0.02-0.379-0.124-0.736-0.242-1.092c-0.034-0.102-0.048-0.211-0.075-0.337
			c-0.019,0.031-0.048,0.057-0.047,0.081c0.009,0.269-0.039,0.53-0.089,0.792c-0.017,0.088,0.006,0.183,0.008,0.275
			c0.01,0.377,0.027,0.755,0.025,1.132c-0.001,0.132-0.051,0.264-0.077,0.396c-0.016,0.077-0.014,0.147,0.018,0.227
			c0.189,0.469,0.268,0.95,0.14,1.452c-0.026,0.102-0.022,0.211-0.026,0.318c-0.01,0.27-0.067,0.531-0.133,0.792
			c-0.019,0.077-0.015,0.161-0.013,0.241c0.002,0.109,0.01,0.219,0.019,0.328c0.037,0.455,0.088,0.907,0.188,1.354
			c0.054,0.242-0.067,0.439-0.375,0.517c-0.114,0.029-0.23,0.051-0.344,0.082c-0.033,0.009-0.072,0.032-0.087,0.06
			c-0.064,0.116-0.128,0.233-0.178,0.355c-0.074,0.18-0.252,0.282-0.446,0.252c-0.04-0.006-0.094,0.01-0.127,0.035
			c-0.181,0.14-0.346,0.153-0.532-0.004c-0.134-0.114-0.141-0.238-0.136-0.394c0.005-0.184,0.074-0.328,0.198-0.448
			c0.046-0.044,0.118-0.063,0.179-0.091c0.068-0.031,0.153-0.043,0.204-0.092c0.18-0.172,0.354-0.352,0.52-0.538
			c0.107-0.12,0.104-0.28,0.075-0.422c-0.087-0.429-0.196-0.854-0.289-1.282c-0.059-0.27-0.118-0.541-0.152-0.814
			c-0.037-0.296-0.055-0.595-0.061-0.894c-0.003-0.15,0.041-0.302,0.063-0.453c0.003-0.022,0.003-0.046-0.003-0.066
			c-0.066-0.234-0.135-0.468-0.2-0.703c-0.013-0.045-0.023-0.093-0.021-0.139c0.006-0.148-0.065-0.271-0.112-0.404
			c-0.064-0.184-0.107-0.383-0.114-0.578c-0.014-0.363-0.036-0.725-0.088-1.085c-0.036-0.248-0.058-0.499-0.077-0.749
			c-0.014-0.188-0.006-0.377-0.021-0.565c-0.013-0.179,0.048-0.339,0.104-0.5c0.057-0.164,0.066-0.322,0.031-0.493
			c-0.033-0.16,0-0.317,0.104-0.453c0.018-0.024,0.025-0.073,0.014-0.101c-0.068-0.167-0.038-0.321,0.037-0.478
			c0.131-0.275,0.177-0.568,0.093-0.861c-0.096-0.335-0.165-0.674-0.216-1.017c-0.012-0.084-0.013-0.17-0.021-0.277
			c-0.038,0.054-0.065,0.092-0.092,0.131c-0.112,0.16-0.278,0.247-0.45,0.32c-0.241,0.103-0.484,0.201-0.73,0.29
			c-0.254,0.092-0.514,0.065-0.764-0.014c-0.143-0.045-0.197-0.184-0.194-0.318c0.004-0.179-0.081-0.339-0.086-0.513
			c-0.006-0.248-0.011-0.496-0.012-0.744c0-0.106,0.007-0.213,0.019-0.319c0.039-0.342,0.082-0.685,0.125-1.027
			c0.01-0.079,0.026-0.156,0.034-0.235c0.003-0.031-0.008-0.064-0.017-0.094c-0.069-0.221-0.149-0.44-0.205-0.665
			c-0.023-0.091,0.009-0.194,0.005-0.291c-0.003-0.075-0.031-0.148-0.035-0.223c-0.008-0.156-0.013-0.313-0.006-0.468
			c0.002-0.051,0.035-0.107,0.068-0.149c0.063-0.08,0.126-0.071,0.171,0.019c0.017,0.033,0.025,0.07,0.034,0.095
			c0.041-0.098,0.085-0.204,0.13-0.31c0.003-0.008,0.008-0.016,0.014-0.023c0.113-0.118,0.15-0.127,0.229,0.002
			c0.038-0.071,0.071-0.148,0.117-0.217c0.044-0.066,0.107-0.062,0.141,0.009c0.023,0.049,0.025,0.107,0.037,0.162
			c0,0,0.007,0.002,0.01,0c0.038-0.03,0.076-0.061,0.114-0.092c0.032,0.044,0.076,0.084,0.092,0.133
			c0.027,0.083,0.046,0.171,0.051,0.258c0.011,0.214,0.01,0.428,0.017,0.642c0.002,0.06,0.014,0.12,0.025,0.2
			c0.049-0.054,0.076-0.102,0.118-0.125c0.097-0.055,0.198-0.1,0.301-0.143c0.078-0.033,0.16-0.029,0.215,0.044
			c0.04,0.055,0.007,0.176-0.06,0.232c-0.122,0.103-0.211,0.225-0.274,0.373c-0.035,0.082-0.091,0.16-0.152,0.227
			c-0.156,0.172-0.227,0.382-0.251,0.602c-0.027,0.255-0.042,0.514-0.033,0.771c0.007,0.187,0.063,0.372,0.097,0.555
			c0.177-0.114,0.339-0.219,0.517-0.333c0.017-0.188,0.148-0.338,0.302-0.466c0.167-0.138,0.353-0.247,0.573-0.282
			c0.012-0.002,0.024-0.009,0.035-0.007c0.22,0.053,0.365-0.092,0.526-0.197c0.094-0.062,0.189-0.122,0.29-0.171
			c0.121-0.059,0.202-0.143,0.215-0.281c0.018-0.185,0.053-0.373-0.048-0.547c-0.025-0.043-0.058-0.08-0.083-0.123
			c-0.033-0.055-0.064-0.112-0.091-0.17c-0.027-0.058-0.048-0.118-0.072-0.177c-0.008-0.019-0.024-0.038-0.023-0.057
			c0.003-0.07-0.007-0.134-0.067-0.18c-0.002-0.002-0.003-0.005-0.004-0.008c-0.045-0.138-0.107-0.273-0.128-0.414
			c-0.012-0.081,0.042-0.172,0.064-0.26c0.009-0.036,0.022-0.076,0.016-0.111c-0.022-0.129,0.017-0.247,0.126-0.302
			c0.1-0.05,0.177-0.114,0.218-0.22c0.064-0.169,0.214-0.18,0.363-0.2c0.049-0.006,0.107-0.031,0.139-0.066
			c0.179-0.203,0.611-0.228,0.817-0.012c0.008,0.008,0.016,0.018,0.02,0.029c0.033,0.09,0.083,0.134,0.192,0.135
			c0.118,0.001,0.189,0.104,0.22,0.207c0.041,0.138,0.127,0.246,0.199,0.364c0.113,0.185,0.172,0.389,0.064,0.59
			c-0.057,0.107-0.069,0.211-0.086,0.323c-0.014,0.099-0.058,0.193-0.15,0.252c-0.012,0.008-0.032,0.016-0.034,0.026
			c-0.041,0.207-0.174,0.385-0.173,0.608c0.001,0.179,0.079,0.304,0.211,0.404c0.164,0.124,0.348,0.227,0.495,0.369
			c0.127,0.122,0.261,0.177,0.43,0.204c0.31,0.05,0.513,0.256,0.658,0.52c0.116,0.211,0.205,0.433,0.2,0.681
			c-0.002,0.088,0.014,0.18-0.007,0.264c-0.025,0.101,0.014,0.18,0.04,0.269c0.051,0.177,0.105,0.357,0.121,0.539
			c0.019,0.209-0.012,0.422-0.003,0.633c0.007,0.167,0.043,0.333,0.066,0.499c0.035,0.253,0.077,0.506,0.102,0.76
			c0.031,0.303-0.027,0.593-0.118,0.885c-0.081,0.259-0.102,0.536-0.156,0.804c-0.042,0.207-0.093,0.412-0.139,0.618
			c-0.007,0.031-0.003,0.065-0.005,0.098c-0.017,0.25,0,0.509-0.06,0.749c-0.069,0.276-0.195,0.54-0.44,0.724
			c-0.035,0.027-0.05,0.1-0.05,0.151c-0.001,0.296-0.058,0.58-0.163,0.856c-0.004,0.011-0.004,0.025-0.011,0.033
			c-0.126,0.154-0.078,0.329-0.068,0.503c0.009,0.165,0.012,0.336-0.02,0.497c-0.028,0.141,0.006,0.257,0.052,0.38
			c0.104,0.28,0.173,0.569,0.192,0.868c0.008,0.124,0.028,0.247,0.031,0.37c0.003,0.115-0.005,0.232-0.016,0.347
			c-0.019,0.2-0.03,0.402-0.07,0.599c-0.07,0.348-0.167,0.692-0.237,1.04c-0.028,0.142-0.016,0.293-0.018,0.44
			C99.169,56.39,99.204,56.525,99.11,56.614z M99.336,48.234c0.011,0.004,0.022,0.008,0.033,0.011
			c0.018-0.036,0.047-0.071,0.051-0.108c0.016-0.188,0.042-0.378,0.034-0.566c-0.014-0.33-0.043-0.66-0.079-0.988
			c-0.025-0.227,0.011-0.448,0.033-0.671c0.003-0.03-0.002-0.071-0.02-0.091c-0.094-0.108-0.15-0.232-0.173-0.373
			c-0.013-0.076-0.031-0.151-0.046-0.226c-0.01,0-0.019,0-0.029-0.001c-0.031,0.112-0.068,0.223-0.091,0.337
			c-0.017,0.082-0.03,0.169-0.019,0.25c0.019,0.138,0.062,0.273,0.088,0.411c0.043,0.231,0.065,0.463-0.024,0.691
			c-0.008,0.019,0.002,0.052,0.014,0.072c0.094,0.152,0.13,0.322,0.151,0.494C99.29,47.728,99.311,47.981,99.336,48.234z"/>
	</g>
	
		<line fill="none" stroke="#E6E6E6" stroke-width="0.5" stroke-miterlimit="10" x1="167.637" y1="58.119" x2="123.684" y2="207.584"/>
	<line fill="none" stroke="#E6E6E6" stroke-width="0.5" stroke-miterlimit="10" x1="102.535" y1="95.706" x2="100.81" y2="220.79"/>
	<line fill="none" stroke="#E6E6E6" stroke-width="0.5" stroke-miterlimit="10" x1="32.114" y1="55.048" x2="76.067" y2="206.505"/>
	<line fill="none" stroke="#E6E6E6" stroke-width="0.5" stroke-miterlimit="10" x1="97.958" y1="93.063" x2="98.941" y2="193.299"/>
	<line fill="none" stroke="#000000" stroke-width="0.5" stroke-miterlimit="10" x1="13.627" y1="65.765" x2="83.349" y2="106.019"/>
	<line fill="none" stroke="#000000" stroke-width="0.5" stroke-miterlimit="10" x1="89.368" y1="102.803" x2="78.23" y2="109.234"/>
	<line fill="none" stroke="#000000" stroke-width="0.5" stroke-miterlimit="10" x1="19.196" y1="62.549" x2="8.058" y2="68.98"/>
	<polygon fill="none" stroke="#CCCCCC" stroke-width="0.5" stroke-miterlimit="10" points="100.81,220.79 76.067,206.505 
		98.941,193.299 123.684,207.584 	"/>
</g>
<style>
#g-hectare-003-Artboard_1-img rect, #g-hectare-003-Artboard_1-img circle, #g-hectare-003-Artboard_1-img path, #g-hectare-003-Artboard_1-img line, #g-hectare-003-Artboard_1-img polyline { vector-effect: non-scaling-stroke; }
</style>
</svg>

